<svg width="30" height="33" viewBox="0 0 30 33" fill="none" xmlns="http://www.w3.org/2000/svg">
<path d="M29.7376 26.3497C27.6909 29.1004 24.8381 31.1452 21.5757 32.1999C18.3133 33.2546 14.8034 33.2668 11.5337 32.2349C8.26407 31.2029 5.39711 29.178 3.33128 26.4416C1.26546 23.7052 0.10339 20.3932 0.00658035 16.9659C-0.090229 13.5386 0.88303 10.1663 2.79109 7.31763C4.69916 4.46897 7.44725 2.28545 10.6534 1.07056C13.8596 -0.144339 17.3646 -0.33027 20.6814 0.538604C23.9981 1.40748 26.9618 3.288 29.1605 5.91881L27.5053 7.3022C25.594 5.01534 23.0178 3.38068 20.1347 2.62541C17.2516 1.87013 14.2048 2.03175 11.4178 3.08781C8.63081 4.14387 6.24201 6.04191 4.58341 8.51814C2.9248 10.9944 2.07879 13.9258 2.16294 16.905C2.24709 19.8842 3.25723 22.7632 5.05297 25.1418C6.84871 27.5205 9.34085 29.2806 12.183 30.1777C15.0252 31.0747 18.0762 31.0641 20.9121 30.1473C23.748 29.2305 26.2278 27.453 28.0069 25.0619L29.7376 26.3497Z" fill="#0A0A0A"/>
</svg>
