<svg width="30" height="33" viewBox="0 0 30 33" fill="none" xmlns="http://www.w3.org/2000/svg">
<path d="M0.26239 26.3497C2.30912 29.1004 5.16191 31.1452 8.4243 32.1999C11.6867 33.2546 15.1966 33.2668 18.4663 32.2349C21.7359 31.2029 24.6029 29.178 26.6687 26.4416C28.7345 23.7052 29.8966 20.3932 29.9934 16.9659C30.0902 13.5386 29.117 10.1663 27.2089 7.31763C25.3008 4.46897 22.5527 2.28545 19.3466 1.07056C16.1404 -0.144339 12.6354 -0.33027 9.31863 0.538604C6.00191 1.40748 3.03823 3.288 0.839495 5.91881L2.49474 7.3022C4.40601 5.01534 6.98221 3.38068 9.86531 2.62541C12.7484 1.87013 15.7952 2.03175 18.5822 3.08781C21.3692 4.14387 23.758 6.04191 25.4166 8.51814C27.0752 10.9944 27.9212 13.9258 27.8371 16.905C27.7529 19.8842 26.7428 22.7632 24.947 25.1418C23.1513 27.5205 20.6592 29.2806 17.817 30.1777C14.9748 31.0747 11.9238 31.0641 9.0879 30.1473C6.25204 29.2305 3.77222 27.453 1.99308 25.0619L0.26239 26.3497Z" fill="#0A0A0A"/>
</svg>
